# xmcd CD database file
#
# Track frame offsets:
#	182
#	12462
#	24235
#	36272
#	48335
#	59727
#	75322
#	88902
#	102375
#	116530
#	128810
#	141390
#	155270
#	167392
#
# Disc length: 2380 seconds
#
# Revision: 2
# Processed by: cddbd v1.4PL0 Copyright (c) Steve Scherf et al.
# Submitted via: CDex 1.50beta10
#
DISCID=b2094a0e
DTITLE=Stompin' Tom Connors - Believe In Your Country
DYEAR=1900
DGENRE=Country
TTITLE0=Johnny Maple
TTITLE1=My Home Cradled Out in the Waves
TTITLE2=Prairie Moon
TTITLE3=She Called From Montreal
TTITLE4=Lover's Lake
TTITLE5=Lena Kathleen
TTITLE6=Believe In Your Country
TTITLE7=Alberta Rose
TTITLE8=Sunshine and Teardrops
TTITLE9=My Sleeping Carmello
TTITLE10=Looking For Someone To Hold
TTITLE11=Paper Smile
TTITLE12=Smile Away Your Memory
TTITLE13=The Ballinafad Ball
EXTD=
EXTT0=
EXTT1=
EXTT2=
EXTT3=
EXTT4=
EXTT5=
EXTT6=
EXTT7=
EXTT8=
EXTT9=
EXTT10=
EXTT11=
EXTT12=
EXTT13=
PLAYORDER=
